<?xml version="1.0" encoding="UTF-8"?>
<svg id="Camada_2" data-name="Camada 2" xmlns="http://www.w3.org/2000/svg" viewBox="0 0 151.83 35.43">
  <defs>
    <style>
      .cls-1 {
        fill: #51302e;
      }
    </style>
  </defs>
  <g id="Layer_1" data-name="Layer 1">
    <g>
      <g>
        <path class="cls-1" d="M0,3.34h5.14l6.87,19.35h.15L19.03,3.34h5.17l-9.4,25.32h-5.43L0,3.34Z"/>
        <path class="cls-1" d="M27.2,28.03c-1.45-.81-2.56-1.95-3.35-3.42-.78-1.47-1.18-3.17-1.18-5.1s.39-3.63,1.18-5.1c.78-1.47,1.9-2.61,3.35-3.42,1.45-.81,3.13-1.21,5.06-1.21s3.57.4,5.01,1.21c1.43.81,2.54,1.95,3.33,3.42.78,1.47,1.18,3.17,1.18,5.1s-.39,3.63-1.18,5.1c-.78,1.47-1.89,2.61-3.33,3.42-1.44.81-3.11,1.21-5.01,1.21s-3.62-.4-5.06-1.21ZM35.76,23.73c.88-1.05,1.32-2.45,1.32-4.21s-.44-3.17-1.32-4.23c-.88-1.06-2.04-1.59-3.49-1.59s-2.65.53-3.53,1.59c-.88,1.06-1.32,2.47-1.32,4.23s.44,3.17,1.32,4.21c.88,1.05,2.05,1.57,3.53,1.57s2.61-.52,3.49-1.57Z"/>
        <path class="cls-1" d="M45.31,27.47c-.81-.8-1.21-1.94-1.21-3.44V3.34h4.63v21.42h1.95v3.91h-1.85c-1.54,0-2.72-.4-3.53-1.19Z"/>
        <path class="cls-1" d="M56.16,26.98c-1.17-1.12-1.75-2.69-1.75-4.72v-7.99h-3.33v-3.91h2.13c.99,0,1.48-.48,1.48-1.45v-4.12h4.23v5.57h3.83v3.91h-3.73v9.41c0,.72.37,1.09,1.12,1.09h3.08v3.91h-2.1c-2.15,0-3.8-.56-4.97-1.68Z"/>
        <path class="cls-1" d="M66.42,27.65c-1.16-1.06-1.74-2.44-1.74-4.12s.55-2.91,1.65-3.89,2.68-1.55,4.76-1.72l4.27-.29c.46-.05.8-.19,1.03-.42.23-.23.34-.58.34-1.07,0-.89-.31-1.56-.92-2.01-.62-.45-1.45-.67-2.51-.67-1.13,0-2.01.25-2.64.74-.63.49-1,1.18-1.12,2.04h-4.45c.22-2.07,1.03-3.67,2.42-4.79,1.4-1.12,3.34-1.68,5.82-1.68s4.49.61,5.88,1.84,2.08,3.06,2.08,5.5v7.63h1.48v3.91h-1.84c-2.17,0-3.33-1.07-3.47-3.22-.55,1.28-1.39,2.23-2.5,2.86-1.11.63-2.39.94-3.84.94-1.98,0-3.54-.53-4.7-1.59ZM75.44,24.3c.88-.83,1.32-1.86,1.32-3.09v-.72l-4.7.36c-1.83.14-2.75.95-2.75,2.42,0,.72.24,1.28.72,1.68.48.4,1.16.6,2.03.6,1.38,0,2.5-.42,3.38-1.25Z"/>
        <path class="cls-1" d="M86.19,11.55c.81-.8,1.98-1.19,3.53-1.19h5.93v3.91h-6.04v14.4h-4.63v-13.67c0-1.5.4-2.64,1.21-3.44Z"/>
      </g>
      <polygon class="cls-1" points="151.83 19.78 133.82 1.77 133.82 1.76 132.06 0 132.06 0 132.05 0 130.29 1.76 130.29 1.77 112.28 19.78 114.04 21.54 130.8 4.79 130.8 35.43 133.28 35.43 133.28 4.76 150.07 21.54 151.83 19.78"/>
    </g>
  </g>
</svg>